<?xml version="1.0" encoding="UTF-8"?>
<svg id="logo" xmlns="http://www.w3.org/2000/svg" viewBox="0 0 308.31 156.34">
  <defs>
    <style>
      .cls-1 {
        letter-spacing: -.02em;
      }

      .cls-2 {
        fill: #ff6339;
      }

      .cls-2, .cls-3, .cls-4 {
        font-family: IsidoraSoftAlt-Bold, 'Isidora Soft Alt';
        font-weight: 700;
      }

      .cls-2, .cls-4 {
        font-size: 53.98px;
      }

      .cls-5 {
        letter-spacing: 0em;
      }

      .cls-6 {
        letter-spacing: 0em;
      }

      .cls-7, .cls-4 {
        fill: #1d9aa0;
      }

      .cls-3 {
        fill: #dd0303;
        font-size: 67.07px;
      }

      .cls-8 {
        letter-spacing: 0em;
      }

      .cls-9 {
        fill: #1cbac9;
      }
    </style>
  </defs>
  <g id="Calque_6" data-name="Calque 6">
    <path class="cls-9" d="M25.06,19.39c3.77,14.51-2.15,11.57-6.23,17.15-2.35,3.22-10.7,15.37-10.35,17.75.98,6.77,9.08,12.1,16.57,13.16,2.46.35,3.92,3,2.86,5.25-4.08,8.7-3.66,18.86,2.48,26.97,3.05,4.03,8.5,5.26,8.74,8.74.22,3.1-5.72,20.52-7.45,23.45-2.66,4.49-26.16,16.15-1.38,15.99,13.91-.09,19.64-13.32,25.4-24.67,1.35-2.66,5.11-2.64,6.5-.01.64,1.22,1.41,2.42,2.49,3.6,2.66,2.87,14.48,10.37,8.54,10.79-11.71.82-16.89,9.26-10.04,9.85,10.61.91,44.79-.57,57.2-1.23,2.82-.15,6.15,1.83,9.56,1.68,27.06-1.22,14.07-50.05,9.59-70.36-.69-3.11-4.05-5.01-6.95-3.69-9.08,4.13,1.49,30.87,2.15,40.39.32,4.73,1.75,23.25-6.45,21.91-7.03-1.15-4.82-22.8-6.37-30.17-7.29-34.65-34.52-29.84-54.1-45.59-12.6-10.14-17.03-25.67-35.95-36.9l-6.8-4.06Z"/>
    <path class="cls-9" d="M141.4,84.13c-.89-5.41-1.88-11.26,3.01-15.02s11.82-3.58,17.01-.69,10.03,8.92,10.53,15.14c.55,6.9-6.88,11.1-12.19,6.23-6.04-5.54-15.08,3.46-9.02,9.02,9.43,8.64,24.68,7.54,31.32-4.04s.09-26.14-9.29-33.89-22.96-9.97-33.72-3.47c-11.38,6.88-11.91,18.23-9.95,30.11,1.33,8.08,13.62,4.65,12.29-3.39h0Z"/>
    <path class="cls-7" d="M2.15,81.09c-1.13,1.1-1.78,3.08-2.11,5.07s1.21,3.58,3.13,3.42c8.14-.68,17.49,7.79,19.6,6.36l-1.86-12.86c-.21-1.46-1.21-2.69-2.61-3.16-5.08-1.71-12.85-2.06-16.15,1.17Z"/>
  </g>
  <g id="Calque_5" data-name="Calque 5">
    <text class="cls-3" transform="translate(202.72 89.13)"><tspan x="0" y="0">4</tspan></text>
  </g>
  <g id="Calque_4" data-name="Calque 4">
    <text class="cls-2" transform="translate(65.03 44.53)"><tspan class="cls-1" x="0" y="0">A</tspan><tspan x="38.97" y="0">mis</tspan></text>
  </g>
  <g id="Calque_2" data-name="Calque 2">
    <text class="cls-4" transform="translate(156.32 140.91)"><tspan class="cls-6" x="0" y="0">a</tspan><tspan x="35.41" y="0">t</tspan><tspan class="cls-8" x="58.78" y="0">t</tspan><tspan class="cls-5" x="81.78" y="0">e</tspan><tspan x="113.31" y="0">s</tspan></text>
  </g>
</svg>