<?xml version="1.0" standalone="no"?>
<!DOCTYPE svg PUBLIC "-//W3C//DTD SVG 20010904//EN"
 "http://www.w3.org/TR/2001/REC-SVG-20010904/DTD/svg10.dtd">
<svg version="1.0" xmlns="http://www.w3.org/2000/svg"
 width="100.000000pt" height="100.000000pt" viewBox="0 0 100.000000 100.000000"
 preserveAspectRatio="xMidYMid meet">

<g transform="translate(0.000000,100.000000) scale(0.100000,-0.100000)"
fill="#ff6339" stroke="none">
<path d="M323 949 c-67 -19 -111 -121 -92 -209 15 -68 55 -129 95 -146 30 -12
39 -12 69 1 50 20 76 82 78 183 1 90 -16 132 -66 162 -35 22 -38 22 -84 9z"/>
<path d="M636 949 c-16 -4 -40 -18 -53 -31 -54 -50 -69 -114 -48 -211 23 -111
72 -159 140 -137 71 23 116 105 118 209 1 120 -69 196 -157 170z"/>
<path d="M90 618 c-115 -77 -110 -275 7 -325 31 -12 38 -12 71 4 45 22 70 64
82 136 11 71 -2 118 -43 163 -43 45 -74 51 -117 22z"/>
<path d="M865 626 c-68 -29 -139 -146 -139 -228 0 -39 5 -53 28 -77 37 -39 71
-44 122 -20 126 60 162 290 53 328 -18 6 -32 11 -33 11 -1 -1 -15 -7 -31 -14z"/>
<path d="M452 453 c-13 -2 -79 -61 -148 -129 -139 -138 -156 -167 -130 -228
29 -71 105 -87 233 -51 45 13 79 16 120 11 32 -4 99 -9 149 -12 90 -6 92 -6
124 23 26 23 33 37 34 70 1 51 -13 67 -92 107 -51 26 -74 46 -115 101 -72 96
-113 120 -175 108z"/>
</g>
</svg>
